<?xml version="1.0" encoding="UTF-8" standalone="no"?>
<!-- Created with Inkscape (http://www.inkscape.org/) -->

<svg
   width="1122.5197"
   height="793.70099"
   viewBox="0 0 296.99999 210.00005"
   version="1.1"
   id="svg1"
   inkscape:version="1.3.2 (091e20e, 2023-11-25, custom)"
   sodipodi:docname="Logo.svg"
   xml:space="preserve"
   inkscape:export-filename="Logo.png"
   inkscape:export-xdpi="96"
   inkscape:export-ydpi="96"
   xmlns:inkscape="http://www.inkscape.org/namespaces/inkscape"
   xmlns:sodipodi="http://sodipodi.sourceforge.net/DTD/sodipodi-0.dtd"
   xmlns:xlink="http://www.w3.org/1999/xlink"
   xmlns="http://www.w3.org/2000/svg"
   xmlns:svg="http://www.w3.org/2000/svg"><sodipodi:namedview
     id="namedview1"
     pagecolor="#ffffff"
     bordercolor="#000000"
     borderopacity="0.25"
     inkscape:showpageshadow="2"
     inkscape:pageopacity="0.0"
     inkscape:pagecheckerboard="0"
     inkscape:deskcolor="#d1d1d1"
     inkscape:document-units="mm"
     inkscape:zoom="0.45254834"
     inkscape:cx="603.25047"
     inkscape:cy="480.61164"
     inkscape:window-width="1366"
     inkscape:window-height="705"
     inkscape:window-x="-8"
     inkscape:window-y="-8"
     inkscape:window-maximized="1"
     inkscape:current-layer="layer1" /><defs
     id="defs1"><linearGradient
       id="linearGradient63"
       inkscape:collect="always"><stop
         style="stop-color:#00a753;stop-opacity:1;"
         offset="0"
         id="stop63" /><stop
         style="stop-color:#005da8;stop-opacity:1;"
         offset="1"
         id="stop64" /></linearGradient><linearGradient
       id="linearGradient61"
       inkscape:collect="always"><stop
         style="stop-color:#00a951;stop-opacity:1;"
         offset="0"
         id="stop61" /><stop
         style="stop-color:#005baa;stop-opacity:1;"
         offset="1"
         id="stop62" /></linearGradient><linearGradient
       id="linearGradient52"
       inkscape:collect="always"><stop
         style="stop-color:#00ab4f;stop-opacity:1;"
         offset="0"
         id="stop51" /><stop
         style="stop-color:#005baa;stop-opacity:1;"
         offset="1"
         id="stop52" /></linearGradient><linearGradient
       id="linearGradient35"
       inkscape:collect="always"><stop
         style="stop-color:#00ab4f;stop-opacity:1;"
         offset="0"
         id="stop34" /><stop
         style="stop-color:#005baa;stop-opacity:1;"
         offset="1"
         id="stop35" /></linearGradient><linearGradient
       id="linearGradient3"
       inkscape:collect="always"><stop
         style="stop-color:#00ab4f;stop-opacity:1;"
         offset="0"
         id="stop3" /><stop
         style="stop-color:#005baa;stop-opacity:1;"
         offset="1"
         id="stop4" /></linearGradient><linearGradient
       id="linearGradient1"
       inkscape:collect="always"><stop
         style="stop-color:#00ab4f;stop-opacity:1;"
         offset="0"
         id="stop1" /><stop
         style="stop-color:#005baa;stop-opacity:1;"
         offset="1"
         id="stop2" /></linearGradient><linearGradient
       inkscape:collect="always"
       xlink:href="#linearGradient1"
       id="linearGradient2"
       x1="2.638679"
       y1="-16.115519"
       x2="132.00185"
       y2="207.94806"
       gradientUnits="userSpaceOnUse"
       gradientTransform="matrix(0.67757911,0,0,0.67757911,77.354178,55.130447)" /><linearGradient
       inkscape:collect="always"
       xlink:href="#linearGradient3"
       id="linearGradient4"
       x1="2.530838"
       y1="0"
       x2="171.2491"
       y2="168.71826"
       gradientUnits="userSpaceOnUse"
       gradientTransform="matrix(0.67757911,0,0,0.67757911,77.354178,56.923209)" /><linearGradient
       inkscape:collect="always"
       xlink:href="#linearGradient35"
       id="linearGradient33"
       x1="6845"
       y1="5539.0718"
       x2="6845"
       y2="1782.4595"
       gradientUnits="userSpaceOnUse" /><linearGradient
       inkscape:collect="always"
       xlink:href="#linearGradient52"
       id="linearGradient50"
       x1="8235"
       y1="11367.837"
       x2="8235"
       y2="4858.9579"
       gradientUnits="userSpaceOnUse" /><linearGradient
       inkscape:collect="always"
       xlink:href="#linearGradient61"
       id="linearGradient62"
       x1="6451.2285"
       y1="5137.4736"
       x2="6451.2285"
       y2="1656.8875"
       gradientUnits="userSpaceOnUse" /><linearGradient
       inkscape:collect="always"
       xlink:href="#linearGradient63"
       id="linearGradient64"
       x1="7181.3213"
       y1="5832.8896"
       x2="7181.3213"
       y2="1653.3473"
       gradientUnits="userSpaceOnUse" /><linearGradient
       inkscape:collect="always"
       xlink:href="#linearGradient52"
       id="linearGradient67"
       gradientUnits="userSpaceOnUse"
       x1="6580.9692"
       y1="11031.885"
       x2="8235"
       y2="4858.9579" /><linearGradient
       inkscape:collect="always"
       xlink:href="#linearGradient35"
       id="linearGradient68"
       gradientUnits="userSpaceOnUse"
       x1="6845"
       y1="5588.8281"
       x2="6845"
       y2="1782.4595" /><linearGradient
       inkscape:collect="always"
       xlink:href="#linearGradient61"
       id="linearGradient69"
       gradientUnits="userSpaceOnUse"
       x1="5428.27"
       y1="5474.6201"
       x2="6451.2285"
       y2="1656.8875" /><linearGradient
       inkscape:collect="always"
       xlink:href="#linearGradient63"
       id="linearGradient70"
       gradientUnits="userSpaceOnUse"
       x1="7181.3213"
       y1="5176.2646"
       x2="7181.3213"
       y2="1653.3473" /><linearGradient
       inkscape:collect="always"
       xlink:href="#linearGradient52"
       id="linearGradient73"
       gradientUnits="userSpaceOnUse"
       x1="6832.8896"
       y1="10091.706"
       x2="8235"
       y2="4858.9579" /><linearGradient
       inkscape:collect="always"
       xlink:href="#linearGradient35"
       id="linearGradient74"
       gradientUnits="userSpaceOnUse"
       x1="5061.8364"
       y1="4870.9893"
       x2="6845"
       y2="1782.4595" /><linearGradient
       inkscape:collect="always"
       xlink:href="#linearGradient61"
       id="linearGradient75"
       gradientUnits="userSpaceOnUse"
       x1="4965.7979"
       y1="4229.729"
       x2="6451.2285"
       y2="1656.8875" /><linearGradient
       inkscape:collect="always"
       xlink:href="#linearGradient63"
       id="linearGradient76"
       gradientUnits="userSpaceOnUse"
       x1="6267.6509"
       y1="5063.2109"
       x2="7181.3213"
       y2="1653.3473" /><linearGradient
       inkscape:collect="always"
       xlink:href="#linearGradient52"
       id="linearGradient79"
       gradientUnits="userSpaceOnUse"
       x1="2931.1389"
       y1="10162.819"
       x2="8235"
       y2="4858.9579" /><linearGradient
       inkscape:collect="always"
       xlink:href="#linearGradient35"
       id="linearGradient80"
       gradientUnits="userSpaceOnUse"
       x1="4043.3376"
       y1="3400"
       x2="6845"
       y2="1782.4595" /><linearGradient
       inkscape:collect="always"
       xlink:href="#linearGradient61"
       id="linearGradient81"
       gradientUnits="userSpaceOnUse"
       x1="3958.3096"
       y1="3096.1748"
       x2="6451.2285"
       y2="1656.8875" /><linearGradient
       inkscape:collect="always"
       xlink:href="#linearGradient63"
       id="linearGradient82"
       gradientUnits="userSpaceOnUse"
       x1="5434.6685"
       y1="3400"
       x2="7181.3213"
       y2="1653.3473" /><linearGradient
       inkscape:collect="always"
       xlink:href="#linearGradient52"
       id="linearGradient85"
       gradientUnits="userSpaceOnUse"
       x1="2151.5122"
       y1="8371.2617"
       x2="8235"
       y2="4858.9579" /><linearGradient
       inkscape:collect="always"
       xlink:href="#linearGradient35"
       id="linearGradient86"
       gradientUnits="userSpaceOnUse"
       x1="4043.3376"
       y1="3400"
       x2="6845"
       y2="1782.4595" /><linearGradient
       inkscape:collect="always"
       xlink:href="#linearGradient61"
       id="linearGradient87"
       gradientUnits="userSpaceOnUse"
       x1="3958.3096"
       y1="3096.1748"
       x2="6451.2285"
       y2="1656.8875" /><linearGradient
       inkscape:collect="always"
       xlink:href="#linearGradient63"
       id="linearGradient88"
       gradientUnits="userSpaceOnUse"
       x1="4746.8149"
       y1="3058.9104"
       x2="7181.3213"
       y2="1653.3473" /><linearGradient
       inkscape:collect="always"
       xlink:href="#linearGradient52"
       id="linearGradient91"
       gradientUnits="userSpaceOnUse"
       x1="2151.5122"
       y1="8371.2617"
       x2="8235"
       y2="4858.9579" /><linearGradient
       inkscape:collect="always"
       xlink:href="#linearGradient35"
       id="linearGradient92"
       gradientUnits="userSpaceOnUse"
       x1="3777"
       y1="1782.4595"
       x2="6845"
       y2="1782.4595" /><linearGradient
       inkscape:collect="always"
       xlink:href="#linearGradient61"
       id="linearGradient93"
       gradientUnits="userSpaceOnUse"
       x1="3780.3214"
       y1="1656.8875"
       x2="6451.2285"
       y2="1656.8875" /><linearGradient
       inkscape:collect="always"
       xlink:href="#linearGradient63"
       id="linearGradient94"
       gradientUnits="userSpaceOnUse"
       x1="4476.2192"
       y1="1653.3473"
       x2="7181.3213"
       y2="1653.3473" /></defs><g
     inkscape:label="Layer 1"
     inkscape:groupmode="layer"
     id="layer1"><text
       xml:space="preserve"
       style="font-style:italic;font-variant:normal;font-weight:900;font-stretch:normal;font-size:47.807px;font-family:'Nunito Sans';-inkscape-font-specification:'Nunito Sans Heavy Italic';text-align:center;text-anchor:middle;fill:url(#linearGradient2);stroke:#000000;stroke-width:1.01637;stroke-dasharray:none;stroke-opacity:1"
       x="148.54778"
       y="102.66369"
       id="text1"><tspan
         sodipodi:role="line"
         style="font-style:italic;font-variant:normal;font-weight:900;font-stretch:normal;font-size:47.807px;font-family:'Nunito Sans';-inkscape-font-specification:'Nunito Sans Heavy Italic';text-align:center;text-anchor:middle;fill:url(#linearGradient2);fill-opacity:1;stroke:#000000;stroke-width:1.01637;stroke-dasharray:none;stroke-opacity:1"
         x="148.54778"
         y="102.66369"
         id="tspan2">FUTBOLITO</tspan></text><text
       xml:space="preserve"
       style="font-style:italic;font-variant:normal;font-weight:900;font-stretch:normal;font-size:47.807px;font-family:'Nunito Sans';-inkscape-font-specification:'Nunito Sans Heavy Italic';text-align:center;text-anchor:middle;fill:url(#linearGradient4);stroke:#000000;stroke-width:1.01637;stroke-dasharray:none;stroke-opacity:1"
       x="46.195137"
       y="139.21214"
       id="text3"><tspan
         sodipodi:role="line"
         style="font-style:italic;font-variant:normal;font-weight:900;font-stretch:normal;font-size:47.807px;font-family:'Nunito Sans';-inkscape-font-specification:'Nunito Sans Heavy Italic';text-align:center;text-anchor:middle;fill:url(#linearGradient4);fill-opacity:1;stroke:#000000;stroke-width:1.01637;stroke-dasharray:none;stroke-opacity:1"
         x="46.195137"
         y="139.21214"
         id="tspan3">FEI</tspan></text><g
       id="g27"
       stroke="none"
       fill="#000000"
       transform="matrix(0.00415435,0,0,-0.00415435,251.83376,138.4749)"><path
         style="fill:url(#linearGradient50);stroke:#000000;stroke-opacity:1;stroke-width:72.21346314;stroke-dasharray:none"
         id="path24"
         d="m 5241,7564 c -289,-435 -437,-766 -530,-1189 -46,-212 -62,-362 -62,-596 1,-421 78,-793 240,-1153 17,-38 30,-71 28,-73 -2,-2 -17,16 -32,39 -130,197 -345,383 -560,484 -199,93 -439,141 -650,130 -139,-7 -157,-9 -285,-42 -267,-69 -463,-183 -655,-382 -169,-176 -277,-375 -332,-615 -23,-97 -26,-134 -26,-277 0,-181 12,-259 64,-415 84,-251 282,-512 502,-659 101,-67 252,-143 347,-174 63,-21 232,-61 258,-62 29,0 8,20 -51,50 -195,98 -349,281 -417,496 -27,84 -37,259 -22,357 25,158 107,314 231,437 99,99 193,157 326,203 84,29 99,31 235,31 166,0 225,-12 357,-75 140,-67 264,-183 351,-330 23,-38 378,-844 610,-1381 75,-175 139,-314 143,-310 4,4 41,86 82,182 76,177 153,355 290,665 235,534 297,677 297,681 0,20 102,205 143,260 98,129 250,234 417,285 64,20 97,23 220,23 124,0 156,-3 220,-23 276,-86 490,-302 561,-567 29,-106 31,-309 5,-404 -63,-232 -223,-428 -433,-534 -50,-25 -69,-46 -40,-46 28,1 189,40 261,64 301,101 588,338 744,614 54,95 106,226 134,337 19,79 22,116 23,295 0,192 -2,211 -28,309 -67,254 -187,454 -379,636 -195,184 -439,305 -718,356 -110,20 -373,17 -480,-5 -197,-42 -382,-118 -529,-219 -97,-66 -282,-250 -349,-346 -60,-86 -65,-82 -21,16 154,338 239,743 239,1138 0,617 -195,1209 -587,1778 -41,59 -75,107 -76,107 -1,0 -31,-44 -66,-96 z" /><path
         style="fill:url(#linearGradient33);stroke:#000000;stroke-opacity:1;stroke-width:72.21346314;stroke-dasharray:none"
         id="path25"
         d="m 3819,3363 c 35,-33 55,-72 155,-303 63,-146 175,-407 251,-580 75,-173 174,-403 220,-510 82,-194 198,-462 564,-1305 114,-260 202,-450 217,-466 14,-15 38,-29 54,-32 36,-8 93,8 114,32 15,17 131,278 401,901 150,348 348,806 403,935 28,66 92,215 142,330 51,116 162,372 247,570 85,198 164,374 174,392 11,17 34,41 52,52 l 32,21 -390,-2 -390,-3 -34,-24 c -36,-26 -76,-103 -186,-362 -112,-261 -527,-1204 -534,-1212 -4,-4 -32,50 -63,120 -201,460 -537,1224 -575,1309 -46,105 -77,145 -126,163 -18,7 -161,11 -399,11 h -371 z" /><path
         style="fill:url(#linearGradient62);stroke:#000000;stroke-opacity:1;stroke-width:72.21346314;stroke-dasharray:none"
         id="path26"
         d="m 3783,3023 c 4,-104 13,-406 21,-673 26,-814 37,-1051 52,-1125 63,-305 229,-581 458,-759 159,-125 320,-211 513,-275 153,-52 343,-98 343,-85 0,3 -13,24 -29,47 -33,49 -78,136 -116,227 -15,36 -36,83 -46,105 -28,62 -240,553 -351,815 -106,248 -354,823 -443,1025 -29,66 -111,257 -183,425 -170,399 -198,460 -213,460 -9,0 -11,-44 -6,-187 z" /><path
         style="fill:url(#linearGradient64);stroke:#000000;stroke-opacity:1;stroke-width:72.21346314;stroke-dasharray:none"
         id="path27"
         d="m 6809,3194 c -7,-9 -30,-55 -50,-103 -20,-47 -109,-255 -198,-461 -90,-206 -205,-472 -256,-590 -51,-118 -129,-298 -173,-400 -44,-102 -139,-322 -210,-490 C 5583,358 5516,210 5453,121 l -17,-23 34,7 c 625,128 1045,434 1221,890 67,171 79,246 89,535 5,146 14,393 20,550 6,157 15,413 20,570 5,157 12,347 16,423 5,136 1,155 -27,121 z" /></g><g
       id="g67"
       stroke="none"
       fill="#000000"
       transform="matrix(0.00415435,0,0,-0.00415435,218.3557,138.4749)"><path
         style="fill:url(#linearGradient67);fill-opacity:1;stroke:#000000;stroke-opacity:1;stroke-width:72.21346314;stroke-dasharray:none"
         id="path64"
         d="m 5241,7564 c -289,-435 -437,-766 -530,-1189 -46,-212 -62,-362 -62,-596 1,-421 78,-793 240,-1153 17,-38 30,-71 28,-73 -2,-2 -17,16 -32,39 -130,197 -345,383 -560,484 -199,93 -439,141 -650,130 -139,-7 -157,-9 -285,-42 -267,-69 -463,-183 -655,-382 -169,-176 -277,-375 -332,-615 -23,-97 -26,-134 -26,-277 0,-181 12,-259 64,-415 84,-251 282,-512 502,-659 101,-67 252,-143 347,-174 63,-21 232,-61 258,-62 29,0 8,20 -51,50 -195,98 -349,281 -417,496 -27,84 -37,259 -22,357 25,158 107,314 231,437 99,99 193,157 326,203 84,29 99,31 235,31 166,0 225,-12 357,-75 140,-67 264,-183 351,-330 23,-38 378,-844 610,-1381 75,-175 139,-314 143,-310 4,4 41,86 82,182 76,177 153,355 290,665 235,534 297,677 297,681 0,20 102,205 143,260 98,129 250,234 417,285 64,20 97,23 220,23 124,0 156,-3 220,-23 276,-86 490,-302 561,-567 29,-106 31,-309 5,-404 -63,-232 -223,-428 -433,-534 -50,-25 -69,-46 -40,-46 28,1 189,40 261,64 301,101 588,338 744,614 54,95 106,226 134,337 19,79 22,116 23,295 0,192 -2,211 -28,309 -67,254 -187,454 -379,636 -195,184 -439,305 -718,356 -110,20 -373,17 -480,-5 -197,-42 -382,-118 -529,-219 -97,-66 -282,-250 -349,-346 -60,-86 -65,-82 -21,16 154,338 239,743 239,1138 0,617 -195,1209 -587,1778 -41,59 -75,107 -76,107 -1,0 -31,-44 -66,-96 z" /><path
         style="fill:url(#linearGradient68);fill-opacity:1;stroke-width:72.21346314;stroke-dasharray:none;stroke:#000000;stroke-opacity:1"
         id="path65"
         d="m 3819,3363 c 35,-33 55,-72 155,-303 63,-146 175,-407 251,-580 75,-173 174,-403 220,-510 82,-194 198,-462 564,-1305 114,-260 202,-450 217,-466 14,-15 38,-29 54,-32 36,-8 93,8 114,32 15,17 131,278 401,901 150,348 348,806 403,935 28,66 92,215 142,330 51,116 162,372 247,570 85,198 164,374 174,392 11,17 34,41 52,52 l 32,21 -390,-2 -390,-3 -34,-24 c -36,-26 -76,-103 -186,-362 -112,-261 -527,-1204 -534,-1212 -4,-4 -32,50 -63,120 -201,460 -537,1224 -575,1309 -46,105 -77,145 -126,163 -18,7 -161,11 -399,11 h -371 z" /><path
         style="fill:url(#linearGradient69);fill-opacity:1;stroke-width:72.21346314;stroke-dasharray:none;stroke:#000000;stroke-opacity:1"
         id="path66"
         d="m 3783,3023 c 4,-104 13,-406 21,-673 26,-814 37,-1051 52,-1125 63,-305 229,-581 458,-759 159,-125 320,-211 513,-275 153,-52 343,-98 343,-85 0,3 -13,24 -29,47 -33,49 -78,136 -116,227 -15,36 -36,83 -46,105 -28,62 -240,553 -351,815 -106,248 -354,823 -443,1025 -29,66 -111,257 -183,425 -170,399 -198,460 -213,460 -9,0 -11,-44 -6,-187 z" /><path
         style="fill:url(#linearGradient70);fill-opacity:1;stroke-width:72.21346314;stroke-dasharray:none;stroke:#000000;stroke-opacity:1"
         id="path67"
         d="m 6809,3194 c -7,-9 -30,-55 -50,-103 -20,-47 -109,-255 -198,-461 -90,-206 -205,-472 -256,-590 -51,-118 -129,-298 -173,-400 -44,-102 -139,-322 -210,-490 C 5583,358 5516,210 5453,121 l -17,-23 34,7 c 625,128 1045,434 1221,890 67,171 79,246 89,535 5,146 14,393 20,550 6,157 15,413 20,570 5,157 12,347 16,423 5,136 1,155 -27,121 z" /></g><g
       id="g73"
       stroke="none"
       fill="#000000"
       transform="matrix(0.00415435,0,0,-0.00415435,184.87764,138.4749)"><path
         style="fill:url(#linearGradient73);fill-opacity:1;stroke:#000000;stroke-opacity:1;stroke-width:72.21346314;stroke-dasharray:none"
         id="path70"
         d="m 5241,7564 c -289,-435 -437,-766 -530,-1189 -46,-212 -62,-362 -62,-596 1,-421 78,-793 240,-1153 17,-38 30,-71 28,-73 -2,-2 -17,16 -32,39 -130,197 -345,383 -560,484 -199,93 -439,141 -650,130 -139,-7 -157,-9 -285,-42 -267,-69 -463,-183 -655,-382 -169,-176 -277,-375 -332,-615 -23,-97 -26,-134 -26,-277 0,-181 12,-259 64,-415 84,-251 282,-512 502,-659 101,-67 252,-143 347,-174 63,-21 232,-61 258,-62 29,0 8,20 -51,50 -195,98 -349,281 -417,496 -27,84 -37,259 -22,357 25,158 107,314 231,437 99,99 193,157 326,203 84,29 99,31 235,31 166,0 225,-12 357,-75 140,-67 264,-183 351,-330 23,-38 378,-844 610,-1381 75,-175 139,-314 143,-310 4,4 41,86 82,182 76,177 153,355 290,665 235,534 297,677 297,681 0,20 102,205 143,260 98,129 250,234 417,285 64,20 97,23 220,23 124,0 156,-3 220,-23 276,-86 490,-302 561,-567 29,-106 31,-309 5,-404 -63,-232 -223,-428 -433,-534 -50,-25 -69,-46 -40,-46 28,1 189,40 261,64 301,101 588,338 744,614 54,95 106,226 134,337 19,79 22,116 23,295 0,192 -2,211 -28,309 -67,254 -187,454 -379,636 -195,184 -439,305 -718,356 -110,20 -373,17 -480,-5 -197,-42 -382,-118 -529,-219 -97,-66 -282,-250 -349,-346 -60,-86 -65,-82 -21,16 154,338 239,743 239,1138 0,617 -195,1209 -587,1778 -41,59 -75,107 -76,107 -1,0 -31,-44 -66,-96 z" /><path
         style="fill:url(#linearGradient74);fill-opacity:1;stroke:#000000;stroke-opacity:1;stroke-width:72.21346314;stroke-dasharray:none"
         id="path71"
         d="m 3819,3363 c 35,-33 55,-72 155,-303 63,-146 175,-407 251,-580 75,-173 174,-403 220,-510 82,-194 198,-462 564,-1305 114,-260 202,-450 217,-466 14,-15 38,-29 54,-32 36,-8 93,8 114,32 15,17 131,278 401,901 150,348 348,806 403,935 28,66 92,215 142,330 51,116 162,372 247,570 85,198 164,374 174,392 11,17 34,41 52,52 l 32,21 -390,-2 -390,-3 -34,-24 c -36,-26 -76,-103 -186,-362 -112,-261 -527,-1204 -534,-1212 -4,-4 -32,50 -63,120 -201,460 -537,1224 -575,1309 -46,105 -77,145 -126,163 -18,7 -161,11 -399,11 h -371 z" /><path
         style="fill:url(#linearGradient75);fill-opacity:1;stroke:#000000;stroke-opacity:1;stroke-width:72.21346314;stroke-dasharray:none"
         id="path72"
         d="m 3783,3023 c 4,-104 13,-406 21,-673 26,-814 37,-1051 52,-1125 63,-305 229,-581 458,-759 159,-125 320,-211 513,-275 153,-52 343,-98 343,-85 0,3 -13,24 -29,47 -33,49 -78,136 -116,227 -15,36 -36,83 -46,105 -28,62 -240,553 -351,815 -106,248 -354,823 -443,1025 -29,66 -111,257 -183,425 -170,399 -198,460 -213,460 -9,0 -11,-44 -6,-187 z" /><path
         style="fill:url(#linearGradient76);fill-opacity:1;stroke:#000000;stroke-opacity:1;stroke-width:72.21346314;stroke-dasharray:none"
         id="path73"
         d="m 6809,3194 c -7,-9 -30,-55 -50,-103 -20,-47 -109,-255 -198,-461 -90,-206 -205,-472 -256,-590 -51,-118 -129,-298 -173,-400 -44,-102 -139,-322 -210,-490 C 5583,358 5516,210 5453,121 l -17,-23 34,7 c 625,128 1045,434 1221,890 67,171 79,246 89,535 5,146 14,393 20,550 6,157 15,413 20,570 5,157 12,347 16,423 5,136 1,155 -27,121 z" /></g><g
       id="g79"
       stroke="none"
       fill="#000000"
       transform="matrix(0.00415435,0,0,-0.00415435,151.39958,138.4749)"><path
         style="fill:url(#linearGradient79);fill-opacity:1;stroke:#000000;stroke-opacity:1;stroke-width:72.21346314;stroke-dasharray:none"
         id="path76"
         d="m 5241,7564 c -289,-435 -437,-766 -530,-1189 -46,-212 -62,-362 -62,-596 1,-421 78,-793 240,-1153 17,-38 30,-71 28,-73 -2,-2 -17,16 -32,39 -130,197 -345,383 -560,484 -199,93 -439,141 -650,130 -139,-7 -157,-9 -285,-42 -267,-69 -463,-183 -655,-382 -169,-176 -277,-375 -332,-615 -23,-97 -26,-134 -26,-277 0,-181 12,-259 64,-415 84,-251 282,-512 502,-659 101,-67 252,-143 347,-174 63,-21 232,-61 258,-62 29,0 8,20 -51,50 -195,98 -349,281 -417,496 -27,84 -37,259 -22,357 25,158 107,314 231,437 99,99 193,157 326,203 84,29 99,31 235,31 166,0 225,-12 357,-75 140,-67 264,-183 351,-330 23,-38 378,-844 610,-1381 75,-175 139,-314 143,-310 4,4 41,86 82,182 76,177 153,355 290,665 235,534 297,677 297,681 0,20 102,205 143,260 98,129 250,234 417,285 64,20 97,23 220,23 124,0 156,-3 220,-23 276,-86 490,-302 561,-567 29,-106 31,-309 5,-404 -63,-232 -223,-428 -433,-534 -50,-25 -69,-46 -40,-46 28,1 189,40 261,64 301,101 588,338 744,614 54,95 106,226 134,337 19,79 22,116 23,295 0,192 -2,211 -28,309 -67,254 -187,454 -379,636 -195,184 -439,305 -718,356 -110,20 -373,17 -480,-5 -197,-42 -382,-118 -529,-219 -97,-66 -282,-250 -349,-346 -60,-86 -65,-82 -21,16 154,338 239,743 239,1138 0,617 -195,1209 -587,1778 -41,59 -75,107 -76,107 -1,0 -31,-44 -66,-96 z" /><path
         style="fill:url(#linearGradient80);fill-opacity:1;stroke-width:72.21346314;stroke-dasharray:none;stroke:#000000;stroke-opacity:1"
         id="path77"
         d="m 3819,3363 c 35,-33 55,-72 155,-303 63,-146 175,-407 251,-580 75,-173 174,-403 220,-510 82,-194 198,-462 564,-1305 114,-260 202,-450 217,-466 14,-15 38,-29 54,-32 36,-8 93,8 114,32 15,17 131,278 401,901 150,348 348,806 403,935 28,66 92,215 142,330 51,116 162,372 247,570 85,198 164,374 174,392 11,17 34,41 52,52 l 32,21 -390,-2 -390,-3 -34,-24 c -36,-26 -76,-103 -186,-362 -112,-261 -527,-1204 -534,-1212 -4,-4 -32,50 -63,120 -201,460 -537,1224 -575,1309 -46,105 -77,145 -126,163 -18,7 -161,11 -399,11 h -371 z" /><path
         style="fill:url(#linearGradient81);fill-opacity:1;stroke-width:72.21346314;stroke-dasharray:none;stroke:#000000;stroke-opacity:1"
         id="path78"
         d="m 3783,3023 c 4,-104 13,-406 21,-673 26,-814 37,-1051 52,-1125 63,-305 229,-581 458,-759 159,-125 320,-211 513,-275 153,-52 343,-98 343,-85 0,3 -13,24 -29,47 -33,49 -78,136 -116,227 -15,36 -36,83 -46,105 -28,62 -240,553 -351,815 -106,248 -354,823 -443,1025 -29,66 -111,257 -183,425 -170,399 -198,460 -213,460 -9,0 -11,-44 -6,-187 z" /><path
         style="fill:url(#linearGradient82);fill-opacity:1;stroke-width:72.21346314;stroke-dasharray:none;stroke:#000000;stroke-opacity:1"
         id="path79"
         d="m 6809,3194 c -7,-9 -30,-55 -50,-103 -20,-47 -109,-255 -198,-461 -90,-206 -205,-472 -256,-590 -51,-118 -129,-298 -173,-400 -44,-102 -139,-322 -210,-490 C 5583,358 5516,210 5453,121 l -17,-23 34,7 c 625,128 1045,434 1221,890 67,171 79,246 89,535 5,146 14,393 20,550 6,157 15,413 20,570 5,157 12,347 16,423 5,136 1,155 -27,121 z" /></g><g
       id="g85"
       stroke="none"
       fill="#000000"
       transform="matrix(0.00415435,0,0,-0.00415435,117.92152,138.4749)"><path
         style="fill:url(#linearGradient85);fill-opacity:1;stroke:#000000;stroke-opacity:1;stroke-width:72.21346314;stroke-dasharray:none"
         id="path82"
         d="m 5241,7564 c -289,-435 -437,-766 -530,-1189 -46,-212 -62,-362 -62,-596 1,-421 78,-793 240,-1153 17,-38 30,-71 28,-73 -2,-2 -17,16 -32,39 -130,197 -345,383 -560,484 -199,93 -439,141 -650,130 -139,-7 -157,-9 -285,-42 -267,-69 -463,-183 -655,-382 -169,-176 -277,-375 -332,-615 -23,-97 -26,-134 -26,-277 0,-181 12,-259 64,-415 84,-251 282,-512 502,-659 101,-67 252,-143 347,-174 63,-21 232,-61 258,-62 29,0 8,20 -51,50 -195,98 -349,281 -417,496 -27,84 -37,259 -22,357 25,158 107,314 231,437 99,99 193,157 326,203 84,29 99,31 235,31 166,0 225,-12 357,-75 140,-67 264,-183 351,-330 23,-38 378,-844 610,-1381 75,-175 139,-314 143,-310 4,4 41,86 82,182 76,177 153,355 290,665 235,534 297,677 297,681 0,20 102,205 143,260 98,129 250,234 417,285 64,20 97,23 220,23 124,0 156,-3 220,-23 276,-86 490,-302 561,-567 29,-106 31,-309 5,-404 -63,-232 -223,-428 -433,-534 -50,-25 -69,-46 -40,-46 28,1 189,40 261,64 301,101 588,338 744,614 54,95 106,226 134,337 19,79 22,116 23,295 0,192 -2,211 -28,309 -67,254 -187,454 -379,636 -195,184 -439,305 -718,356 -110,20 -373,17 -480,-5 -197,-42 -382,-118 -529,-219 -97,-66 -282,-250 -349,-346 -60,-86 -65,-82 -21,16 154,338 239,743 239,1138 0,617 -195,1209 -587,1778 -41,59 -75,107 -76,107 -1,0 -31,-44 -66,-96 z" /><path
         style="fill:url(#linearGradient86);fill-opacity:1;stroke-width:72.21346314;stroke-dasharray:none;stroke:#000000;stroke-opacity:1"
         id="path83"
         d="m 3819,3363 c 35,-33 55,-72 155,-303 63,-146 175,-407 251,-580 75,-173 174,-403 220,-510 82,-194 198,-462 564,-1305 114,-260 202,-450 217,-466 14,-15 38,-29 54,-32 36,-8 93,8 114,32 15,17 131,278 401,901 150,348 348,806 403,935 28,66 92,215 142,330 51,116 162,372 247,570 85,198 164,374 174,392 11,17 34,41 52,52 l 32,21 -390,-2 -390,-3 -34,-24 c -36,-26 -76,-103 -186,-362 -112,-261 -527,-1204 -534,-1212 -4,-4 -32,50 -63,120 -201,460 -537,1224 -575,1309 -46,105 -77,145 -126,163 -18,7 -161,11 -399,11 h -371 z" /><path
         style="fill:url(#linearGradient87);fill-opacity:1;stroke-width:72.21346314;stroke-dasharray:none;stroke:#000000;stroke-opacity:1"
         id="path84"
         d="m 3783,3023 c 4,-104 13,-406 21,-673 26,-814 37,-1051 52,-1125 63,-305 229,-581 458,-759 159,-125 320,-211 513,-275 153,-52 343,-98 343,-85 0,3 -13,24 -29,47 -33,49 -78,136 -116,227 -15,36 -36,83 -46,105 -28,62 -240,553 -351,815 -106,248 -354,823 -443,1025 -29,66 -111,257 -183,425 -170,399 -198,460 -213,460 -9,0 -11,-44 -6,-187 z" /><path
         style="fill:url(#linearGradient88);fill-opacity:1;stroke-width:72.21346314;stroke-dasharray:none;stroke:#000000;stroke-opacity:1"
         id="path85"
         d="m 6809,3194 c -7,-9 -30,-55 -50,-103 -20,-47 -109,-255 -198,-461 -90,-206 -205,-472 -256,-590 -51,-118 -129,-298 -173,-400 -44,-102 -139,-322 -210,-490 C 5583,358 5516,210 5453,121 l -17,-23 34,7 c 625,128 1045,434 1221,890 67,171 79,246 89,535 5,146 14,393 20,550 6,157 15,413 20,570 5,157 12,347 16,423 5,136 1,155 -27,121 z" /></g><g
       id="g91"
       stroke="none"
       fill="#000000"
       transform="matrix(0.00415435,0,0,-0.00415435,84.44346,138.4749)"><path
         style="fill:url(#linearGradient91);fill-opacity:1;stroke:#000000;stroke-opacity:1;stroke-width:72.21346314;stroke-dasharray:none"
         id="path88"
         d="m 5241,7564 c -289,-435 -437,-766 -530,-1189 -46,-212 -62,-362 -62,-596 1,-421 78,-793 240,-1153 17,-38 30,-71 28,-73 -2,-2 -17,16 -32,39 -130,197 -345,383 -560,484 -199,93 -439,141 -650,130 -139,-7 -157,-9 -285,-42 -267,-69 -463,-183 -655,-382 -169,-176 -277,-375 -332,-615 -23,-97 -26,-134 -26,-277 0,-181 12,-259 64,-415 84,-251 282,-512 502,-659 101,-67 252,-143 347,-174 63,-21 232,-61 258,-62 29,0 8,20 -51,50 -195,98 -349,281 -417,496 -27,84 -37,259 -22,357 25,158 107,314 231,437 99,99 193,157 326,203 84,29 99,31 235,31 166,0 225,-12 357,-75 140,-67 264,-183 351,-330 23,-38 378,-844 610,-1381 75,-175 139,-314 143,-310 4,4 41,86 82,182 76,177 153,355 290,665 235,534 297,677 297,681 0,20 102,205 143,260 98,129 250,234 417,285 64,20 97,23 220,23 124,0 156,-3 220,-23 276,-86 490,-302 561,-567 29,-106 31,-309 5,-404 -63,-232 -223,-428 -433,-534 -50,-25 -69,-46 -40,-46 28,1 189,40 261,64 301,101 588,338 744,614 54,95 106,226 134,337 19,79 22,116 23,295 0,192 -2,211 -28,309 -67,254 -187,454 -379,636 -195,184 -439,305 -718,356 -110,20 -373,17 -480,-5 -197,-42 -382,-118 -529,-219 -97,-66 -282,-250 -349,-346 -60,-86 -65,-82 -21,16 154,338 239,743 239,1138 0,617 -195,1209 -587,1778 -41,59 -75,107 -76,107 -1,0 -31,-44 -66,-96 z" /><path
         style="fill:url(#linearGradient92);fill-opacity:1;stroke-width:72.21346314;stroke-dasharray:none;stroke:#000000;stroke-opacity:1"
         id="path89"
         d="m 3819,3363 c 35,-33 55,-72 155,-303 63,-146 175,-407 251,-580 75,-173 174,-403 220,-510 82,-194 198,-462 564,-1305 114,-260 202,-450 217,-466 14,-15 38,-29 54,-32 36,-8 93,8 114,32 15,17 131,278 401,901 150,348 348,806 403,935 28,66 92,215 142,330 51,116 162,372 247,570 85,198 164,374 174,392 11,17 34,41 52,52 l 32,21 -390,-2 -390,-3 -34,-24 c -36,-26 -76,-103 -186,-362 -112,-261 -527,-1204 -534,-1212 -4,-4 -32,50 -63,120 -201,460 -537,1224 -575,1309 -46,105 -77,145 -126,163 -18,7 -161,11 -399,11 h -371 z" /><path
         style="fill:url(#linearGradient93);fill-opacity:1;stroke-width:72.21346314;stroke-dasharray:none;stroke:#000000;stroke-opacity:1"
         id="path90"
         d="m 3783,3023 c 4,-104 13,-406 21,-673 26,-814 37,-1051 52,-1125 63,-305 229,-581 458,-759 159,-125 320,-211 513,-275 153,-52 343,-98 343,-85 0,3 -13,24 -29,47 -33,49 -78,136 -116,227 -15,36 -36,83 -46,105 -28,62 -240,553 -351,815 -106,248 -354,823 -443,1025 -29,66 -111,257 -183,425 -170,399 -198,460 -213,460 -9,0 -11,-44 -6,-187 z" /><path
         style="fill:url(#linearGradient94);fill-opacity:1;stroke-width:72.21346314;stroke-dasharray:none;stroke:#000000;stroke-opacity:1"
         id="path91"
         d="m 6809,3194 c -7,-9 -30,-55 -50,-103 -20,-47 -109,-255 -198,-461 -90,-206 -205,-472 -256,-590 -51,-118 -129,-298 -173,-400 -44,-102 -139,-322 -210,-490 C 5583,358 5516,210 5453,121 l -17,-23 34,7 c 625,128 1045,434 1221,890 67,171 79,246 89,535 5,146 14,393 20,550 6,157 15,413 20,570 5,157 12,347 16,423 5,136 1,155 -27,121 z" /></g></g></svg>
